<?xml version="1.0" encoding="utf-8"?>
<!-- Generator: Adobe Illustrator 25.4.1, SVG Export Plug-In . SVG Version: 6.00 Build 0)  -->
<svg version="1.1" id="Layer_1" xmlns="http://www.w3.org/2000/svg" xmlns:xlink="http://www.w3.org/1999/xlink" x="0px" y="0px"
	 viewBox="0 0 32.19 39.81" style="enable-background:new 0 0 32.19 39.81;" xml:space="preserve">
<style type="text/css">
	.st0{fill:#FFFFFF;}
	.st1{fill:#ED1C24;}
	.st2{fill:#F0EFEF;}
</style>

<g>
	<path class="st2" d="M25.43,24.6c0,0.08,0,0.42,0.01,1.03c0.01,0.44,0.01,0.79,0,1.06c-0.04,0.8-0.18,1.32-0.44,1.58
		c-0.03,0.03-0.07,0.06-0.11,0.08c0.03,0.44-0.06,1.08-0.25,1.9c0.02,0.03,0.06,0.95,0.11,2.78c0.01,0.07,0.02,0.16,0.04,0.3
		c0.01,0.11,0.01,0.2,0.01,0.25c0,0.19-0.08,0.31-0.23,0.38c-0.29-0.31-0.41-0.92-0.35-1.82c0.07-0.95,0.01-1.56-0.17-1.83
		c-0.3,0-0.56,0.18-0.77,0.55c-0.23,0.39-0.47,0.59-0.73,0.61c0.03,0.31,0.02,0.83-0.01,1.55c-0.04,0.8-0.05,1.36-0.04,1.69
		c0,0.06,0.01,0.14,0.03,0.25c0.03,0.11,0.04,0.2,0.04,0.25c0.01,0.19-0.07,0.31-0.24,0.37c-0.22-0.07-0.35-0.47-0.41-1.23
		c-0.02-0.29-0.02-0.7,0-1.24c0.02-0.63,0.02-1.05,0.01-1.25c-0.02-0.92-0.23-1.54-0.65-1.85c-0.08,0.04-0.12,0.18-0.13,0.44
		c0,0.23-0.06,0.35-0.17,0.38c-0.19-0.06-0.31-0.28-0.38-0.66c-0.08-0.4-0.18-0.65-0.31-0.73c-3.65-0.38-5.8-0.53-6.43-0.47
		c-0.36,0.04-0.59,0.12-0.7,0.24c0.04,0.02-0.5,0.04-1.62,0.06c-0.09,0.02-0.15,0.16-0.16,0.42c-0.01,0.24-0.08,0.37-0.2,0.38
		c-0.13,0.01-0.2-0.08-0.21-0.27c-0.02-0.24-0.04-0.39-0.07-0.42c-0.19-0.23-0.42-0.28-0.69-0.17c-0.1,0.09-0.16,0.31-0.16,0.63
		c0,0.32-0.07,0.53-0.2,0.63c0.1,0.08-0.01-0.29-0.35-1.1c-0.01-0.04-0.27-0.32-0.79-0.85c-0.34-0.35-0.4-0.72-0.2-1.13
		c-0.02,0.01,0.02,0,0.13-0.03c-0.05-0.32-0.07-1.35-0.07-3.1c0-1.32-0.03-3.79-0.1-7.41c-0.13,0.08-0.26,0.08-0.38-0.01
		c0.01-0.07-0.01-0.11-0.06-0.13c0.02-0.12,0.08-0.2,0.18-0.24c0.08-0.04,0.17-0.03,0.25,0.03c0-0.08,0-0.18,0-0.28
		c-0.02-1.05-0.03-1.56-0.03-1.54c-0.06-0.03-0.11-0.06-0.17-0.1c0-0.06,0-0.12,0.01-0.2c0.01-0.08,0.01-0.14,0.01-0.16
		c0.01-0.08-0.06-0.13-0.21-0.13c-0.01-0.2,0.01-0.32,0.07-0.37c-0.02-0.08-0.07-0.12-0.14-0.1c-0.08,0.02-0.14,0.01-0.17-0.03
		c0.01-0.04,0.04-0.08,0.08-0.11c0.06-0.05,0.09-0.09,0.1-0.13c-0.01-0.04-0.15-0.14-0.42-0.31c0-0.04,0.05-0.06,0.14-0.06
		c0.09-0.01,0.15-0.03,0.16-0.06c-0.19-0.39-0.29-0.76-0.3-1.1c-0.01,0,0.07-0.02,0.24-0.06l-0.18-0.24C7.7,11.47,7.8,11.43,8,11.44
		c0.02-0.13-0.02-0.24-0.11-0.34c-0.12-0.11-0.19-0.2-0.2-0.27c0.06,0,0.12,0.03,0.2,0.08c0.06,0.05,0.13,0.06,0.23,0.04
		c0.05-0.01,0.09-0.07,0.14-0.18c0.04-0.08,0.11-0.11,0.23-0.07c0.07-0.26,0.13-0.42,0.18-0.48c0.05-0.01,0.08,0.02,0.1,0.08
		c0.02,0.07,0.05,0.1,0.08,0.1c-0.08,0.01,0.07-0.19,0.42-0.61c0.06,0,0.1,0.04,0.13,0.13c0.02,0.09,0.04,0.15,0.06,0.17
		c0.08-0.01,0.13-0.09,0.13-0.24c0-0.26,0-0.39,0-0.37c0.04,0,0.07,0.01,0.1,0.03C9.7,9.54,9.73,9.55,9.76,9.55L9.69,9.99
		c0.23,0.18,0.5,0.2,0.79,0.07c0.01-0.01,0.23-0.15,0.68-0.44c-0.05,0.2-0.01,0.37,0.1,0.51c0.12,0.18,0.19,0.31,0.2,0.39
		c0.16-0.04,0.55-0.14,1.18-0.3c0.44-0.1,0.82-0.21,1.13-0.31c0.09,0.19,0.05,0.35-0.13,0.49c-0.06,0.04-0.14,0.09-0.25,0.16
		c-0.11,0.07-0.19,0.11-0.23,0.14l-0.06,0.68c-0.05,0-0.12,0-0.21,0c-0.1-0.01-0.18-0.01-0.23,0c-0.15,0.01-0.23,0.07-0.24,0.18
		c-0.08-0.05,0.3-0.07,1.16-0.07c-0.03,0.1-0.09,0.16-0.18,0.17c0.39,0.01,1.16,0.04,2.28,0.1c0.9,0.05,1.57,0.07,2.02,0.07
		c0.24,0,0.83-0.02,1.76-0.07c0.96-0.06,1.71-0.08,2.27-0.08c1.9-0.01,3.03,0.22,3.4,0.68c0.23,0.31,0.36,0.92,0.37,1.82
		c0,0.27-0.01,0.64-0.03,1.11c-0.02,0.49-0.03,0.8-0.03,0.94V24.6z M23.44,26.68c0.25-1.35,0.29-3.93,0.1-7.74h-1.25
		c0.26,1.86-0.13,3.43-1.18,4.72c-1.02,1.25-2.37,1.87-4.04,1.87c-1.59-0.01-2.9-0.66-3.95-1.96c-1.07-1.32-1.47-2.87-1.18-4.64
		c-0.02,0.01-0.34,0-0.96-0.03c-0.39-0.01-0.6,0.1-0.61,0.34c0.01,0.4,0,1.66-0.01,3.78c-0.01,1.55,0.03,2.77,0.13,3.65
		C14.83,27.08,19.15,27.08,23.44,26.68z M12.24,8.28c-0.05-0.1-0.05-0.19-0.01-0.27c0.05-0.08,0.14-0.11,0.27-0.1
		c0.04,0.04,0.06,0.1,0.06,0.18c0,0.08-0.02,0.15-0.06,0.18H12.24z M13.15,11.62c-0.01,0-0.03,0.01-0.06,0.04c0.08,0,0.15,0,0.18,0
		C13.23,11.65,13.19,11.64,13.15,11.62z M13.82,19.05c-0.39,1.15-0.32,2.14,0.23,2.99c0.48,0.74,1.21,1.24,2.2,1.48
		c0.97,0.23,1.86,0.15,2.66-0.25c0.89-0.44,1.43-1.18,1.61-2.23c0.21-1.21-0.08-2.25-0.87-3.1c-0.82-0.88-1.88-1.21-3.2-0.97
		C15.09,17.21,14.22,17.9,13.82,19.05z M15.34,10.83c-0.07,0.14-0.37,0.24-0.92,0.31C14.94,10.94,15.24,10.83,15.34,10.83z
		 M15.76,10.65c0.02,0.12-0.1,0.18-0.37,0.18C15.48,10.74,15.6,10.68,15.76,10.65z M20.41,14.03c0,0.04-0.01,0.53-0.03,1.48
		c0,0.6,0.08,1.01,0.23,1.24c0.59,0.22,1.57,0.22,2.93,0c0.21-1.05,0.21-1.99,0-2.82c-0.33-0.24-0.87-0.37-1.62-0.37
		C21.13,13.57,20.63,13.73,20.41,14.03z"/>
</g>
</svg>
