<?xml version="1.0" encoding="utf-8"?>
<!-- Generator: Adobe Illustrator 25.4.1, SVG Export Plug-In . SVG Version: 6.00 Build 0)  -->
<svg version="1.1" id="Layer_1" xmlns="http://www.w3.org/2000/svg" xmlns:xlink="http://www.w3.org/1999/xlink" x="0px" y="0px"
	 viewBox="0 0 62.68 68.89" style="enable-background:new 0 0 62.68 68.89;" xml:space="preserve">
<style type="text/css">
	.st0{fill:#F40101;}
</style>
<g>
	<path class="st0" d="M25.83,40.4c0.13-2.47,0.2-4.94,0.41-7.41c0.63-7.54,1.69-15,4.37-22.13c0.44-1.18,0.99-2.33,1.58-3.45
		c1.08-2.03,2.75-2.06,3.89-0.05c0.53,0.93,0.96,1.95,1.26,2.99c1.77,6.19,2.21,12.53,2.19,18.93c0,0.32,0.01,0.66-0.09,0.94
		c-0.9,2.39-0.49,4.9-0.62,7.35c-0.04,0.86,0.46,1.95,1.07,2.57c0.7,0.71,1.66,0.21,2.49-0.28c0.33-0.19,0.86-0.03,1.3-0.03
		c-0.14,0.47-0.14,1.1-0.45,1.39c-2.08,1.91-5.03,1.04-5.7-1.69c-0.21-0.86-0.2-1.77-0.31-2.83c-0.36,0.22-0.6,0.36-0.83,0.52
		c-2.21,1.55-4.39,3.14-6.63,4.64c-0.7,0.46-1.37,0.78-1.44,1.77c-0.02,0.33-0.47,0.78-0.81,0.88c-0.25,0.07-0.65-0.34-0.95-0.57
		c-0.53-0.42-0.98-0.99-1.57-1.29c-2.94-1.5-4.26-4.01-4.26-7.17c0.01-3.56,0.07-7.14,0.43-10.68c0.47-4.59,1.28-9.15,3.38-13.33
		c0.43-0.84,1.2-1.55,1.93-2.18c0.25-0.21,0.87,0.02,1.32,0.05c-0.07,0.43,0.01,1.02-0.25,1.26c-1.64,1.53-2.32,3.55-2.88,5.59
		c-1.65,5.96-2.47,12.05-2.25,18.23c0.05,1.48,0.66,2.98,1.25,4.37c0.32,0.74,1.16,1.27,1.76,1.89
		C25.55,40.58,25.69,40.49,25.83,40.4z M37.56,30.47c0.13-0.03,0.27-0.06,0.4-0.09c0.09-0.59,0.26-1.19,0.27-1.78
		c0.02-1.99,0.06-3.98-0.05-5.96c-0.24-4.52-0.85-8.99-2.43-13.27c-0.21-0.58-0.74-1.04-1.11-1.56c-0.49,0.41-1.18,0.72-1.45,1.25
		c-0.82,1.6-1.81,3.21-2.14,4.93c-1.17,6.02-2.11,12.09-3.11,18.14c-0.05,0.3,0.06,0.63,0.09,0.94c0.93-1.08,1.54-2.21,2.15-3.35
		c0.78-1.47,2.01-1.88,3.61-1.8C35.59,28.01,36.6,29.15,37.56,30.47z M28.47,40.34c0.19,0.08,0.38,0.17,0.56,0.25
		c2.5-1.56,5.06-3.03,6.9-5.46c1.41-1.86,0.78-4.41-1.36-5.42c-1.23-0.58-2.32-0.32-3.04,0.86c-0.56,0.92-1.14,1.88-1.43,2.9
		C29.47,35.73,29.01,38.04,28.47,40.34z"/>
	<path class="st0" d="M30.76,55.19c0.18-0.51,0.36-1.02,0.54-1.53c0.76-2.17,1.44-4.37,2.33-6.48c0.39-0.92,1.21-1.67,1.89-2.44
		c0.58-0.66,1.44-1.1,2.14-0.47c0.51,0.46,0.98,1.43,0.86,2.06c-0.47,2.44-0.99,4.89-1.84,7.21c-0.93,2.53-2.27,4.91-3.4,7.37
		c-0.39,0.85-0.67,1.76-1.07,2.61c-0.17,0.36-0.63,0.91-0.8,0.86c-0.42-0.13-1.02-0.53-1.06-0.87c-0.29-2.52-2.2-4.09-3.41-6.06
		c-1.72-2.82-2.48-5.9-2.38-9.18c0.02-0.55,0.38-1.44,0.75-1.54c0.58-0.16,1.57,0,1.92,0.41c0.84,1,1.54,2.18,2.04,3.39
		c0.42,1.02,0.46,2.2,0.7,3.31c0.1,0.45,0.27,0.89,0.41,1.34C30.5,55.18,30.63,55.18,30.76,55.19z M31.88,58.2
		c0.18,0.03,0.35,0.06,0.53,0.09c0.08-0.05,0.18-0.07,0.23-0.14c2.48-3.57,3.44-7.73,4.55-11.83c0.08-0.28-0.12-0.9-0.27-0.93
		c-0.34-0.06-0.8,0.06-1.07,0.27c-1.49,1.18-2.26,2.84-2.62,4.63C32.69,52.92,32.32,55.57,31.88,58.2z M29.11,57.7
		c-0.26-3.19-0.71-6.06-1.87-8.77c-0.21-0.49-0.79-0.81-1.3-1.31C25.09,50.32,26.87,55.96,29.11,57.7z"/>
</g>
</svg>
