<?xml version="1.0" encoding="utf-8"?>
<!-- Generator: Adobe Illustrator 25.4.1, SVG Export Plug-In . SVG Version: 6.00 Build 0)  -->
<svg version="1.1" id="Layer_1" xmlns="http://www.w3.org/2000/svg" xmlns:xlink="http://www.w3.org/1999/xlink" x="0px" y="0px"
	 viewBox="0 0 32.19 39.81" style="enable-background:new 0 0 32.19 39.81;" xml:space="preserve">
<style type="text/css">
	.st0{fill:#FFFFFF;}
	.st1{fill:#ED1C24;}
	.st2{fill:#F0EFEF;}
</style>
<g>
	<rect x="-993.61" y="672.77" class="st0" width="448.86" height="102.86"/>
	<path class="st1" d="M-547.33,675.34v97.71h-443.71v-97.71H-547.33 M-542.18,670.2h-454v108h454V670.2L-542.18,670.2z"/>
</g>
<g>
	<text transform="matrix(1 0 0 1 -875.4598 714.3147)"><tspan x="0" y="0" style="fill:#010101; font-family:'Abys-Regular'; font-size:39.5088px;">ABYS FONT</tspan><tspan x="0" y="47.41" style="fill:#010101; font-family:'Abys-Regular'; font-size:39.5088px;">size: 40.3993</tspan></text>
</g>
<g>
	<path class="st2" d="M7.52,12.13c0.06,0.15,0.01,0.24-0.14,0.27c-0.15,0.02-0.21-0.05-0.18-0.2C7.28,12.13,7.38,12.11,7.52,12.13z
		 M7.78,17.22c0.02,0.16-0.07,0.23-0.27,0.21C7.5,17.27,7.59,17.2,7.78,17.22z M7.66,21.39c-0.09-0.19-0.1-0.4-0.01-0.65
		c0.08-0.26,0.24-0.29,0.47-0.07C8.04,20.96,7.89,21.2,7.66,21.39z M8.11,13.31c0,0.01,0.09,0.03,0.27,0.07
		c-0.01,0.11-0.1,0.16-0.27,0.13V13.31z M8.71,12.92c-0.04,0.21-0.13,0.3-0.27,0.27v-0.27H8.71z M8.84,18.88
		c0.03,0.26-0.08,0.42-0.32,0.46c-0.04-0.03-0.06-0.21-0.07-0.54C8.65,18.8,8.78,18.82,8.84,18.88z M25,16.75
		c-0.05,0.31-0.23,0.6-0.55,0.87c-0.39,0.33-0.62,0.57-0.7,0.73c0.06,1.8-0.33,3.49-1.16,5.07c0.04-0.02,0.14-0.19,0.3-0.51
		c0.22,0.16,0.42,0.38,0.61,0.65c0.15-0.34,0.22-0.54,0.21-0.61c0.41,0.38,0.66,0.65,0.75,0.83c-0.05,0.06-0.09,0.15-0.14,0.27
		c-0.06,0.14-0.1,0.23-0.13,0.28c-0.1,0.21-0.26,0.31-0.48,0.32c-0.03,0.18-0.11,0.31-0.25,0.38c-0.29-0.15-0.58-0.11-0.87,0.11
		c-0.36,0.28-0.65,0.42-0.87,0.41c-0.24,0.96-0.34,2.7-0.3,5.23c0.01,0.79,0,1.21-0.04,1.25c-0.11-0.04-0.16-0.12-0.14-0.25
		c0-0.02,0.01-0.07,0.03-0.16c0.01-0.07,0.01-0.12,0.01-0.16c-0.07-2.59-0.03-4.55,0.1-5.86c-0.08-0.04-0.15-0.08-0.23-0.13
		c-0.58,0.65-1.23,1.21-1.94,1.69c-0.01,0.04-0.01,0.08-0.01,0.11c0.4,0.13,0.64,0.39,0.72,0.79c-0.08,0.03-0.12,0.01-0.13-0.06
		c0-0.02,0-0.05,0-0.1c0-0.05,0-0.08,0-0.1c-0.06-0.01-0.08,0.03-0.07,0.13c0.01,0.12,0.01,0.19,0,0.2c0.07,0.15,0.24,0.22,0.54,0.2
		v0.27c0.03-0.02-0.1-0.04-0.39-0.07c-0.03,0.08-0.01,0.12,0.06,0.14c0.08,0.01,0.1,0.05,0.07,0.13c-0.15,0.01-0.24-0.03-0.28-0.11
		c-0.04-0.08-0.01-0.15,0.08-0.21c0.06-0.01-0.06-0.02-0.35-0.03c-0.08-0.01-0.14,0.04-0.18,0.15c0.02,0.04,0.05,0.03,0.1-0.03
		c0.07-0.07,0.12-0.06,0.17,0.03c-0.21,0.35-0.16,0.7,0.14,1.06c-0.31-0.08-0.52-0.23-0.63-0.45c0.01,0.22-0.07,0.36-0.23,0.44
		c0-0.05-0.01-0.16-0.03-0.32c-0.06,0-0.09,0-0.11,0.01v-0.27c0.03-0.01,0.06-0.01,0.08,0c-0.02-0.18-0.03-0.36-0.04-0.55
		c-0.17-0.15-0.27-0.3-0.31-0.45c-0.06,0.04-0.08,0.16-0.06,0.37c0.01,0.21-0.01,0.33-0.07,0.37c0.01,0.02,0.03,0.04,0.07,0.06
		c0.04,0.02,0.06,0.04,0.06,0.07c0.08,0.03,0.12,0.01,0.14-0.06c0.02-0.08,0.06-0.1,0.13-0.07c-0.02,0.14-0.11,0.23-0.28,0.25
		c-0.16,0.03-0.24,0.12-0.24,0.28c-0.21-0.07-0.32-0.11-0.34-0.14c-0.01-0.1,0.02-0.14,0.08-0.11c0.1,0.04,0.16,0.06,0.18,0.06
		c0.02-0.21-0.03-0.41-0.16-0.61c-0.15-0.23-0.23-0.4-0.24-0.54c-0.19,0.08-0.34,0.15-0.46,0.2v0.01c0.01,0,0,0-0.01,0
		c-0.21,0.08-0.4,0.14-0.58,0.2c0.05,0.11,0.07,0.18,0.06,0.2c0.08,0.02,0.13-0.02,0.17-0.11c0.03-0.08,0.08-0.11,0.17-0.08
		c-0.04,0.09-0.02,0.16,0.04,0.18c0.09,0.03,0.15,0.06,0.16,0.08c-0.05,0.02,0.02-0.09,0.2-0.34c0.08,0.01,0.12,0.1,0.1,0.27
		c-0.03,0.2-0.02,0.33,0.03,0.39c-0.1-0.11-0.17-0.1-0.21,0.04c-0.08,0.29-0.12,0.43-0.11,0.42c-0.33,0-0.48-0.11-0.46-0.32
		c-0.04,0.01-0.07,0.08-0.08,0.21c-0.02,0.1-0.08,0.14-0.18,0.11c-0.04-0.42-0.23-0.71-0.56-0.87c-0.39,0.09-0.78,0.16-1.14,0.2
		c-0.01,1.17,0,2.64,0.04,4.38c0,0.03,0,0.08,0.01,0.16c0.02,0.08,0.02,0.13,0.01,0.17c0,0.11-0.08,0.16-0.25,0.14
		c-0.06-0.1-0.04-0.24,0.04-0.42c0.05-1.26,0.06-2.73,0.03-4.41c-2.04,0.21-3.98-0.21-5.82-1.24c2.25-0.29,3.77-0.86,4.55-1.72
		c-0.86-0.19-1.52-0.42-1.96-0.7c-0.6-0.38-0.97-0.9-1.11-1.56c-0.01,0.01,0.45-0.03,1.37-0.13c-0.98-0.59-1.6-1.01-1.86-1.27
		c-0.6-0.57-0.93-1.29-0.99-2.14c0.19,0,0.42,0.03,0.69,0.1c0.3,0.08,0.53,0.12,0.68,0.13c-0.6-0.94-0.98-1.62-1.13-2.04
		c-0.37-1-0.3-1.83,0.21-2.51c0.24,0.23,0.47,0.44,0.69,0.63c0.02-0.11,0.11-0.16,0.27-0.14c0.01,0.13-0.05,0.2-0.18,0.2
		c1.11,0.97,2.23,1.68,3.37,2.13c0.02-0.15,0.1-0.31,0.25-0.46c0.07-0.02,0.12,0,0.17,0.06c0.04,0.07,0.09,0.09,0.16,0.07
		c-0.05,0.21,0,0.36,0.14,0.47c-0.01,0.02-0.03,0.06-0.06,0.11c0.43,0.14,0.86,0.25,1.3,0.32c0-0.04,0-0.08,0.01-0.11h0.2
		c0.03,0.04,0.05,0.09,0.07,0.16c0.32,0.05,0.62,0.08,0.92,0.1c-0.02-0.12-0.04-0.25-0.06-0.39c-0.05-0.03-0.07-0.08-0.07-0.16
		c0-0.07,0.02-0.12,0.07-0.16c0-0.74,0.22-1.42,0.65-2.03c0.4-0.56,0.93-0.99,1.59-1.28c-0.01-0.02-0.03-0.08-0.06-0.2
		c0.14,0.02,0.25-0.05,0.32-0.21c0.08,0.05,0.14,0.07,0.2,0.07c0.01,0.07,0.01,0.12,0,0.16c1.42-0.43,2.63-0.13,3.62,0.9
		c0.28-0.02,0.6-0.1,0.94-0.25c0.46-0.18,0.75-0.29,0.87-0.32c0.06,0.25-0.07,0.54-0.37,0.86c-0.08,0.09-0.22,0.23-0.41,0.39
		c-0.18,0.16-0.3,0.27-0.37,0.34c0.15,0.1,0.39,0.1,0.72,0C24.74,16.83,24.99,16.75,25,16.75z M8.97,14.97
		c-0.1-0.02-0.15-0.11-0.13-0.27c-0.01,0,0.08,0.02,0.27,0.07c-0.01,0.03-0.03,0.06-0.07,0.1C9,14.9,8.98,14.94,8.97,14.97z
		 M9.04,22.91c0.13-0.02,0.18,0.04,0.14,0.18c-0.03,0.15-0.1,0.2-0.21,0.16C8.96,23.11,8.98,23,9.04,22.91z M9.43,22.12
		c-0.15,0.05-0.22-0.04-0.2-0.27h0.2V22.12z M10.09,14.31c0.02,0.23-0.09,0.34-0.32,0.32c-0.1-0.1-0.1-0.21,0.01-0.31
		C9.89,14.21,9.99,14.21,10.09,14.31z M10.24,13.26c0.01-0.04-0.01-0.06-0.07-0.07v-0.13c0.04,0.01,0.06-0.01,0.07-0.07h0.13
		c-0.01,0.04,0.01,0.06,0.07,0.07v0.13c-0.04-0.01-0.06,0.01-0.07,0.07H10.24z M10.5,15.44c-0.13,0.02-0.2-0.03-0.2-0.14
		c0-0.11,0.07-0.16,0.2-0.13V15.44z M11.42,14.64c-0.26-0.01-0.39-0.09-0.39-0.25c0.08,0.02,0.16,0,0.21-0.06
		c0.06-0.07,0.12-0.09,0.18-0.08C11.52,14.35,11.52,14.48,11.42,14.64z M11.62,13.38c-0.06,0.24-0.19,0.38-0.39,0.39
		c-0.01-0.03-0.03-0.06-0.07-0.1c-0.04-0.03-0.06-0.06-0.06-0.1c0.02-0.13,0.09-0.23,0.23-0.28C11.44,13.25,11.54,13.28,11.62,13.38
		z M12.88,10.73c-0.09,0.16-0.25,0.27-0.46,0.34c-0.18-0.2-0.18-0.35-0.01-0.47C12.57,10.5,12.73,10.55,12.88,10.73z M12.42,12.52
		c0.08,0,0.22,0.09,0.39,0.27c-0.02,0.09-0.08,0.16-0.18,0.18c-0.11,0.04-0.21,0.02-0.28-0.06c0-0.04,0.02-0.1,0.06-0.18
		C12.43,12.67,12.44,12.6,12.42,12.52z M12.74,13.78c-0.15,0.06-0.24,0.02-0.27-0.1c-0.02-0.12,0-0.22,0.07-0.3
		C12.69,13.36,12.75,13.49,12.74,13.78z M12.69,18.02c-0.06,0.01-0.09-0.02-0.11-0.08c-0.02-0.08-0.05-0.11-0.1-0.11
		c0.02-0.11,0.11-0.16,0.27-0.14C12.76,17.82,12.74,17.93,12.69,18.02z M12.69,12.2c0.1-0.03,0.16,0,0.18,0.1
		c0.02,0.09,0,0.17-0.06,0.23c-0.1,0.02-0.17-0.02-0.2-0.11C12.6,12.33,12.62,12.25,12.69,12.2z M12.81,11.99
		c-0.09-0.23-0.14-0.33-0.13-0.32c0.05-0.05,0.13-0.07,0.25-0.07v0.34C12.87,11.92,12.82,11.94,12.81,11.99z M12.94,15.69
		c0.07,0.02,0.13,0.01,0.2-0.03c0.07-0.04,0.13-0.05,0.2-0.03c-0.2,0.23-0.24,0.33-0.13,0.32c0,0.05,0.04,0.08,0.13,0.08
		c0.08,0.01,0.13,0.03,0.14,0.06l0.07,0.52c-0.15-0.01-0.27-0.11-0.37-0.31c-0.09-0.21-0.19-0.32-0.3-0.35
		c-0.01-0.04,0-0.08,0.03-0.13C12.94,15.79,12.95,15.74,12.94,15.69z M13.41,11.2c-0.08,0.05-0.15,0.05-0.21,0.01
		c-0.08-0.07-0.16-0.09-0.25-0.08c-0.02,0.04,0.04,0,0.17-0.1c0.06-0.04,0.07-0.11,0.03-0.23C13.32,10.84,13.41,10.97,13.41,11.2z
		 M13.74,15.1c0.23,0.06,0.24,0.25,0.06,0.59c-0.08-0.03-0.18-0.06-0.32-0.1c-0.17-0.05-0.28-0.08-0.34-0.1
		c0.03-0.16,0.14-0.22,0.34-0.18C13.65,15.35,13.74,15.28,13.74,15.1z M13.28,12.92c0.23-0.02,0.31,0.05,0.27,0.2
		C13.35,13.14,13.26,13.08,13.28,12.92z M13.34,14.17c-0.03-0.13,0.03-0.22,0.18-0.25c0.14-0.04,0.26-0.02,0.35,0.06
		c-0.12,0.07-0.15,0.13-0.08,0.18c0.06,0.05,0.15,0.08,0.28,0.08c-0.04,0.12-0.04,0.24,0,0.37c0.04,0.11,0.04,0.21,0,0.3
		c-0.16-0.02-0.3-0.13-0.41-0.32C13.53,14.35,13.42,14.22,13.34,14.17z M13.74,12.52c0.01,0.15-0.08,0.22-0.27,0.2
		c0,0.01,0.02-0.08,0.07-0.27c0.04,0,0.07,0.01,0.1,0.03C13.68,12.51,13.72,12.52,13.74,12.52z M14.2,12.2
		c-0.09-0.03-0.2-0.1-0.31-0.23c-0.1-0.13-0.2-0.21-0.28-0.24c0.02-0.08,0.06-0.18,0.13-0.28c0.08-0.1,0.12-0.19,0.14-0.25
		c0.09-0.02,0.19-0.01,0.28,0.03c0.1,0.03,0.19,0.04,0.25,0.04v0.27c0.18-0.08,0.55-0.15,1.11-0.2c0.02,0.11-0.01,0.24-0.1,0.39
		c-0.08,0.12-0.08,0.28-0.03,0.47c-0.13-0.14-0.16-0.1-0.07,0.13c-0.07-0.01-0.17-0.02-0.32-0.04c-0.1-0.02-0.23-0.03-0.39-0.03
		c-0.2-0.42-0.29-0.62-0.27-0.59c-0.05,0.03-0.08,0.11-0.08,0.25C14.25,12.07,14.23,12.16,14.2,12.2z M13.62,18.64
		c0.13,0.05,0.17,0.06,0.11,0.04C13.69,18.65,13.65,18.64,13.62,18.64z M13.94,13.06c-0.02-0.01-0.05-0.01-0.1,0
		c-0.05,0-0.08,0-0.11,0c-0.07-0.01-0.08-0.06-0.06-0.14c0.06-0.05,0.15-0.07,0.27-0.06V13.06z M13.94,17.36
		c-0.16,0.02-0.23-0.07-0.2-0.27H14C14,17.08,13.98,17.17,13.94,17.36z M14,12.25c0.03,0.2-0.04,0.29-0.2,0.27
		c-0.05-0.07-0.07-0.13-0.06-0.2C13.8,12.28,13.89,12.25,14,12.25z M14.07,10.68c-0.12,0.03-0.2,0-0.24-0.1
		c-0.05-0.08-0.03-0.16,0.04-0.24C14.04,10.39,14.11,10.5,14.07,10.68z M14.34,16.43c-0.13,0.16-0.24,0.25-0.34,0.27
		c-0.08-0.07-0.06-0.15,0.06-0.25C14.17,16.35,14.26,16.34,14.34,16.43z M15.59,14.04c-0.07,0.25-0.2,0.32-0.39,0.21
		c-0.27-0.15-0.43-0.22-0.46-0.21c0-0.13-0.14-0.3-0.42-0.49c-0.22-0.16-0.25-0.32-0.11-0.49c0.23,0.18,0.36,0.35,0.41,0.52
		c0.17-0.01,0.25-0.03,0.25-0.07c0.01,0.02,0.02,0.06,0.03,0.13c0,0.06,0,0.1,0.01,0.13c0.04,0.08,0.14,0.09,0.3,0.01
		c0.12-0.2,0.21-0.33,0.27-0.39c0.08,0.08,0.1,0.19,0.07,0.35c-0.03,0.17-0.1,0.25-0.21,0.24C15.33,14,15.42,14.03,15.59,14.04z
		 M14.42,32.34c0.1,0,0.15,0.07,0.13,0.2c-0.02,0.12-0.08,0.16-0.2,0.13c-0.05-0.05-0.06-0.1-0.03-0.15L14.42,32.34z M14.41,12.25
		c0.11-0.04,0.16,0.01,0.14,0.16c-0.03,0.14-0.1,0.18-0.21,0.11c0-0.04,0.01-0.08,0.03-0.13C14.39,12.35,14.41,12.3,14.41,12.25z
		 M14.46,15.17c-0.06-0.54-0.1-0.79-0.13-0.73c0.08,0.02,0.16,0.08,0.25,0.17c0.09,0.09,0.18,0.15,0.27,0.17
		c-0.01,0.08-0.05,0.22-0.13,0.39H14.46z M14.8,10.68c-0.04,0.1-0.15,0.17-0.34,0.2c-0.06-0.09-0.08-0.21-0.06-0.34
		c0.05,0.07,0.11,0.1,0.18,0.1C14.67,10.63,14.74,10.64,14.8,10.68z M15.2,8.89c-0.01,0.08-0.06,0.17-0.14,0.25
		c-0.1,0.1-0.17,0.17-0.2,0.21c-0.05-0.01-0.11-0.05-0.18-0.11c-0.08-0.06-0.15-0.08-0.21-0.08c-0.02-0.21,0.07-0.33,0.27-0.38
		C14.91,8.73,15.06,8.76,15.2,8.89z M15.66,9.41c0.04-0.01,0.03-0.06-0.03-0.16c-0.07-0.11-0.08-0.22-0.04-0.31
		c0.18-0.13,0.36-0.13,0.54,0c-0.04,0.21,0.03,0.34,0.2,0.41l0.2-0.14c-0.04,0.09-0.01,0.21,0.07,0.34
		c0.22-0.17,0.46-0.15,0.72,0.06c-0.02,0.05-0.05,0.12-0.1,0.21c-0.05,0.08-0.08,0.15-0.1,0.2c-0.64-0.12-1.01,0.03-1.13,0.45
		c-0.02,0-0.11-0.03-0.28-0.08c-0.07-0.02-0.13,0.03-0.18,0.16c0.01,0.03,0.08,0.05,0.21,0.07c-0.08,0.06-0.17,0.17-0.3,0.34
		c-0.11,0.15-0.22,0.26-0.31,0.32c-0.08,0-0.15-0.04-0.2-0.13C14.86,11.05,14.8,11,14.73,11c0.03-0.1,0.13-0.2,0.31-0.28
		c0.18-0.08,0.27-0.19,0.28-0.31c0.02-0.08-0.01-0.15-0.08-0.18c-0.15-0.08-0.21-0.1-0.17-0.08c0.06-0.19,0.08-0.39,0.06-0.59
		c0.07-0.01,0.15-0.04,0.25-0.08C15.48,9.43,15.58,9.41,15.66,9.41z M15.07,13.26c-0.01,0,0.08,0.02,0.25,0.06
		c0,0.1-0.11,0.15-0.32,0.14C15.05,13.38,15.07,13.31,15.07,13.26z M15.39,12.65c0.02,0.24-0.05,0.36-0.2,0.34v-0.34H15.39z
		 M15.59,14.38c0.31,0.05,0.44,0.05,0.39,0c-0.07,0.14-0.22,0.21-0.46,0.2C15.57,14.5,15.59,14.44,15.59,14.38z M15.73,17.82
		c0.08-0.01,0.15,0.08,0.2,0.27C15.77,18.14,15.7,18.05,15.73,17.82z M16.07,30.55c0,0.29-0.07,0.42-0.2,0.39
		c-0.05-0.04-0.07-0.1-0.07-0.2c0-0.08,0.02-0.15,0.07-0.2H16.07z M16.32,11.93c-0.03,0-0.08,0.03-0.14,0.1
		c-0.05,0.05-0.11,0.06-0.2,0.03c-0.06-0.06-0.08-0.19-0.06-0.39c0.12,0.01,0.19-0.01,0.2-0.07C16.23,11.63,16.29,11.74,16.32,11.93
		z M16.32,11c0.01,0.08-0.03,0.14-0.11,0.16c-0.16,0.04-0.23,0.05-0.23,0.04V11C16.1,11.03,16.21,11.03,16.32,11z M16.32,7.76
		c0.02,0.15-0.07,0.22-0.27,0.2c0,0.01,0.02-0.08,0.07-0.27c0.04,0,0.07,0.01,0.1,0.03C16.26,7.75,16.29,7.76,16.32,7.76z
		 M16.06,14.51c0.09-0.06,0.11-0.15,0.06-0.27c-0.07-0.13-0.06-0.24,0.01-0.32c0.08-0.02,0.14,0,0.18,0.07
		c0.06,0.08,0.1,0.12,0.14,0.13C16.34,14.39,16.21,14.52,16.06,14.51z M16.18,12.4c0.01-0.2,0.06-0.29,0.16-0.28
		c0.2,0.01,0.3,0.01,0.31,0.01c-0.02,0.12-0.08,0.21-0.17,0.27C16.39,12.44,16.29,12.44,16.18,12.4z M16.27,34.05
		c0.14-0.03,0.2,0.04,0.18,0.21c-0.02,0.16-0.08,0.24-0.18,0.25V34.05z M16.65,13.65c-0.01,0.1-0.1,0.15-0.27,0.13
		c0.01,0.01,0.03-0.08,0.07-0.27c0.03,0.01,0.06,0.03,0.1,0.07C16.59,13.62,16.62,13.64,16.65,13.65z M16.46,30.28
		c0.23-0.02,0.34,0.14,0.34,0.46c-0.09,0.03-0.16,0.01-0.2-0.06c-0.05-0.08-0.11-0.1-0.2-0.07c-0.03-0.07-0.02-0.13,0.01-0.18
		C16.46,30.39,16.47,30.33,16.46,30.28z M16.53,29.56c0.09,0,0.18,0.04,0.25,0.13c0.04,0.04,0.11,0.01,0.21-0.07
		c-0.02,0.06-0.03,0.15-0.04,0.27c-0.01,0.09-0.04,0.18-0.1,0.27c0.05,0.06,0.01-0.03-0.1-0.27c-0.05-0.09-0.1-0.07-0.15,0.07
		C16.64,29.95,16.62,29.82,16.53,29.56z M16.59,11.93c0.14-0.03,0.23,0.06,0.25,0.27c0.03,0.02-0.03-0.01-0.17-0.08
		C16.6,12.08,16.57,12.02,16.59,11.93z M16.99,13.38c0.02,0.14-0.03,0.21-0.15,0.2c-0.13-0.01-0.19-0.08-0.18-0.2H16.99z
		 M17.11,12.65c-0.01,0.07,0,0.14,0.04,0.23c0.04,0.08,0.05,0.16,0.03,0.24c-0.29,0.08-0.47,0.01-0.54-0.2
		C16.68,12.78,16.83,12.69,17.11,12.65z M16.72,11.79c0.02-0.1,0.11-0.15,0.27-0.13v0.2C16.99,11.86,16.91,11.84,16.72,11.79z
		 M16.79,12.25c-0.01,0,0.08,0.02,0.25,0.07c-0.04,0.07-0.06,0.13-0.06,0.2l-0.27-0.07C16.76,12.39,16.79,12.32,16.79,12.25z
		 M17.04,14.58c-0.11-0.01-0.19-0.08-0.23-0.2c-0.02-0.03-0.04-0.08-0.06-0.17c-0.01-0.08-0.02-0.13-0.04-0.17
		c0.11-0.01,0.16,0.04,0.15,0.16c0,0.11,0.08,0.15,0.24,0.11C17.11,14.3,17.09,14.39,17.04,14.58z M17.07,30.02
		c0.01-0.06,0.07-0.05,0.17,0.03c0.11,0.08,0.16,0.15,0.16,0.23c-0.07-0.06-0.13-0.05-0.18,0.01c-0.08,0.11-0.12,0.17-0.14,0.18
		c-0.1-0.05-0.11-0.13-0.03-0.25C17.13,30.11,17.14,30.04,17.07,30.02z M17.31,8.62c-0.08,0.02-0.14,0.01-0.2-0.03
		c-0.07-0.07-0.11-0.1-0.13-0.1c0.01-0.2,0.12-0.29,0.32-0.27c0.05,0.04,0.07,0.1,0.07,0.2C17.38,8.51,17.36,8.57,17.31,8.62z
		 M17.86,29.56c0,0.1-0.05,0.17-0.14,0.2c0.19-0.01,0.31,0.09,0.38,0.3c0.07,0.2,0.05,0.39-0.04,0.56
		c-0.25-0.16-0.37-0.34-0.34-0.54c0-0.04-0.08-0.06-0.23-0.07c-0.11,0-0.15-0.07-0.1-0.2c-0.07,0.05-0.13,0.07-0.2,0.07
		c-0.01-0.01-0.03-0.05-0.06-0.11c-0.02-0.05-0.04-0.08-0.07-0.08c0.02,0,0.05,0,0.1,0c0.05,0,0.08,0,0.1-0.01
		c0.06-0.02,0.1-0.1,0.13-0.25c0.08,0.01,0.15,0.05,0.23,0.13C17.68,29.61,17.76,29.62,17.86,29.56z M17.18,11.2
		c0.08,0.01,0.12-0.01,0.13-0.07c0.11,0.02,0.16,0.11,0.14,0.27c-0.08-0.01-0.12,0.01-0.14,0.07C17.21,11.45,17.16,11.36,17.18,11.2
		z M18.18,31.67c-0.04,0.01-0.09,0-0.16-0.04c-0.03-0.02-0.04,0.02-0.04,0.11c-0.07-0.01-0.13-0.05-0.18-0.13
		c-0.06-0.08-0.1-0.12-0.14-0.14c-0.05,0-0.08,0.04-0.08,0.11c-0.01,0.08-0.03,0.14-0.06,0.16c-0.08-0.01-0.13-0.15-0.13-0.41
		c0.04,0,0.08,0.01,0.11,0.03c0.04,0.03,0.07,0.04,0.08,0.04c-0.01-0.07,0.01-0.33,0.07-0.79c0.11-0.01,0.22,0.06,0.32,0.2
		c0.1,0.13,0.23,0.17,0.39,0.13c-0.02,0.05-0.06,0.11-0.13,0.18c-0.07,0.08-0.11,0.13-0.13,0.16
		C18.04,31.42,18.06,31.55,18.18,31.67z M17.7,12.72c-0.1-0.02-0.15-0.11-0.14-0.28c0.02-0.17,0.07-0.27,0.14-0.31
		c0.13,0.06,0.19,0.15,0.17,0.28C17.86,12.52,17.81,12.63,17.7,12.72z M17.65,11.79c0.21-0.03,0.29,0.06,0.25,0.27h-0.32
		C17.62,12,17.65,11.91,17.65,11.79z M17.97,8.55c-0.11,0.01-0.19-0.05-0.24-0.17c-0.04-0.11-0.02-0.21,0.04-0.3
		C18.07,8.22,18.13,8.38,17.97,8.55z M18.37,13.97c0.04,0.41-0.03,0.68-0.2,0.8c-0.08-0.01-0.13-0.09-0.17-0.25
		c-0.04-0.15-0.11-0.22-0.23-0.21c0-0.2,0.07-0.33,0.2-0.41C18.1,13.82,18.23,13.84,18.37,13.97z M17.9,15.05l0.27,0.06
		c-0.01,0.11-0.1,0.16-0.27,0.14V15.05z M18.25,32.53c0,0.07-0.02,0.14-0.07,0.23c-0.04,0.09-0.06,0.17-0.06,0.24
		c-0.22,0.02-0.26-0.18-0.14-0.59c0.04,0,0.08,0.03,0.11,0.08C18.14,32.54,18.19,32.55,18.25,32.53z M18.37,11.93
		c-0.06,0.09-0.16,0.14-0.32,0.13c-0.05-0.07-0.07-0.13-0.07-0.2C18.07,11.77,18.2,11.79,18.37,11.93z M18.06,33.52
		c0.12-0.02,0.19,0.04,0.2,0.17c0.02,0.13,0,0.23-0.07,0.3c-0.08,0-0.12-0.05-0.13-0.16c0-0.04,0-0.09,0-0.16
		C18.06,33.61,18.06,33.56,18.06,33.52z M18.37,10.8c-0.01,0.1-0.09,0.15-0.25,0.13c0,0.01,0.02-0.08,0.06-0.25
		c0.03,0,0.06,0.02,0.1,0.06C18.31,10.77,18.34,10.79,18.37,10.8z M18.56,11.07c-0.06,0.22,0.06,0.31,0.34,0.27
		c0.03,0.04,0.04,0.09,0.03,0.17c-0.01,0.08,0,0.15,0.04,0.23c-0.09,0.05-0.2,0.06-0.31,0.03c-0.16-0.03-0.28-0.04-0.35-0.03
		c0.02-0.08,0.01-0.16-0.03-0.24c-0.04-0.08-0.05-0.16-0.04-0.23c0.08,0.02,0.14-0.01,0.17-0.1C18.45,11.09,18.5,11.05,18.56,11.07z
		 M18.32,34.18c0.1-0.02,0.15,0.04,0.14,0.17c-0.01,0.11-0.04,0.19-0.08,0.24c-0.05-0.05-0.08-0.12-0.08-0.21
		C18.28,34.28,18.29,34.22,18.32,34.18z M18.32,35.04c0.13-0.04,0.2,0,0.2,0.13c0,0.03,0,0.09,0,0.18c-0.01,0.08-0.01,0.13,0,0.16
		c-0.11,0.02-0.18-0.02-0.2-0.13C18.33,35.44,18.33,35.32,18.32,35.04z M18.44,12.52c0.01-0.04-0.01-0.06-0.07-0.07v-0.13
		c0.05,0.01,0.07-0.01,0.07-0.07h0.13c0,0.04,0.02,0.06,0.07,0.07v0.13c-0.04-0.01-0.06,0.01-0.07,0.07H18.44z M18.7,8.69
		c-0.06,0.06-0.11,0.06-0.17,0.01c-0.07-0.06-0.1-0.13-0.1-0.21C18.63,8.46,18.72,8.53,18.7,8.69z M19.1,14.51
		c0,0.08-0.07,0.13-0.2,0.14c-0.12,0-0.21-0.02-0.27-0.07c0.03-0.1,0.08-0.14,0.17-0.11C18.94,14.5,19.04,14.52,19.1,14.51z
		 M19.17,12.4c-0.24,0.03-0.36-0.17-0.34-0.61c0.15-0.01,0.26,0.06,0.34,0.21C19.24,12.14,19.24,12.27,19.17,12.4z M19.1,13.26
		c-0.18-0.23-0.27-0.37-0.27-0.39c0.04-0.04,0.11-0.08,0.21-0.14c0.09-0.05,0.16-0.09,0.18-0.13c0.03,0,0.05,0.07,0.07,0.2
		c0.12-0.01,0.18-0.07,0.18-0.17c-0.01-0.12,0.02-0.2,0.08-0.23c0.03,0,0.06,0.02,0.1,0.07c0.03,0.03,0.06,0.05,0.1,0.06
		c-0.03-0.23,0.04-0.31,0.2-0.27c-0.04-0.17-0.01-0.28,0.07-0.32c0.14,0.04,0.19,0.1,0.14,0.2c-0.08,0.17-0.1,0.3-0.08,0.39
		c-0.28,0-0.41,0.07-0.39,0.2c0.31,0.13,0.43,0.18,0.37,0.14c0.11,0.08,0.15,0.21,0.1,0.39c-0.06,0.01-0.16,0.07-0.3,0.17
		c-0.11,0.08-0.23,0.1-0.37,0.08v0.21c0.1,0.06,0.22,0.08,0.35,0.08c0.18,0.01,0.31,0.02,0.38,0.04c0.02-0.07,0-0.12-0.07-0.17
		c-0.06-0.04-0.08-0.09-0.07-0.17c0.05,0,0.1-0.04,0.16-0.11c0.05-0.07,0.11-0.09,0.18-0.08c0.06,0.3,0.21,0.44,0.46,0.41v0.25
		c-0.08,0.03-0.15,0.02-0.2-0.03c-0.07-0.07-0.11-0.1-0.14-0.1c-0.05,0.02-0.03,0.07,0.04,0.16c0.08,0.09,0.12,0.17,0.1,0.24
		c-0.13,0.02-0.2,0.06-0.21,0.13c-0.03,0.17-0.05,0.26-0.06,0.27c-0.16,0.04-0.26-0.02-0.31-0.18c-0.06-0.21-0.11-0.32-0.16-0.34
		c-0.05,0-0.07,0.04-0.07,0.11c-0.01,0.08-0.03,0.14-0.06,0.16c-0.08,0.01-0.17-0.01-0.25-0.06c-0.08-0.06-0.15-0.08-0.21-0.08
		c-0.02,0.09-0.11-0.08-0.27-0.52c0-0.12,0.09-0.26,0.27-0.41c0.15-0.14,0.19-0.27,0.13-0.39C19.17,13.14,19.04,13.26,19.1,13.26z
		 M18.96,28.91c0.01-0.05,0.02-0.08,0.03-0.08c-0.01,0-0.03-0.02-0.06-0.06c0.01,0.02,0.01,0.04,0.01,0.07
		C18.95,28.87,18.96,28.89,18.96,28.91z M19.38,30.62c0.13-0.03,0.2,0.1,0.2,0.39c-0.09-0.02-0.16-0.07-0.21-0.16
		C19.31,30.76,19.31,30.68,19.38,30.62z M19.83,14.78c-0.04,0-0.08,0.03-0.11,0.08c-0.04,0.05-0.09,0.06-0.16,0.04
		c0.02-0.07,0-0.12-0.07-0.17c-0.06-0.04-0.08-0.09-0.07-0.16c0.08-0.08,0.17-0.09,0.27-0.04C19.79,14.58,19.84,14.66,19.83,14.78z
		 M19.58,28.9c0.08,0,0.12,0.04,0.13,0.13c0.01,0.08-0.01,0.15-0.06,0.2c-0.08,0-0.13-0.04-0.14-0.13
		C19.51,29.01,19.53,28.94,19.58,28.9z M19.7,30.42c0.07,0.02,0.13,0.01,0.18-0.03c0.06-0.04,0.11-0.05,0.16-0.04
		c0.03,0.21-0.06,0.34-0.27,0.39C19.71,30.66,19.69,30.55,19.7,30.42z M19.78,29.49l0.27,0.07c-0.02,0.26-0.11,0.39-0.27,0.39
		c-0.06-0.08-0.06-0.15,0-0.23C19.83,29.64,19.83,29.56,19.78,29.49z M19.76,10.73c-0.03-0.09,0.01-0.2,0.13-0.32
		c0.09-0.03,0.14,0,0.14,0.08c0.01,0.2,0.01,0.28,0,0.24H19.76z M20.09,12.72c0-0.03,0.07-0.14,0.21-0.32
		c0.09,0,0.14,0.11,0.13,0.32H20.09z M20.49,9.15c-0.23,0.05-0.32-0.04-0.27-0.27h0.27V9.15z M20.23,11.86
		c-0.02-0.13,0-0.24,0.07-0.32h0.25c0.08,0.17,0.11,0.3,0.07,0.39C20.41,11.94,20.28,11.92,20.23,11.86z M20.55,12.4
		c-0.15-0.08-0.22-0.2-0.2-0.34c0.04,0,0.08,0.01,0.13,0.04c0.05,0.02,0.09,0.03,0.14,0.03c0,0.04-0.01,0.08-0.03,0.13
		C20.56,12.3,20.55,12.35,20.55,12.4z M20.82,13.38c0.13-0.08-0.02-0.24-0.46-0.46C20.53,12.95,20.69,13.1,20.82,13.38z M20.82,9.75
		c0.01,0-0.08-0.02-0.27-0.07c0.01-0.03,0.03-0.06,0.07-0.1c0.04-0.03,0.06-0.06,0.07-0.1C20.79,9.5,20.84,9.59,20.82,9.75z
		 M20.96,12.33c0.01,0.23-0.1,0.34-0.34,0.32c-0.06-0.06-0.06-0.12,0-0.2c0.09-0.14,0.14-0.21,0.13-0.2c0.05,0,0.08,0.01,0.11,0.03
		C20.9,12.31,20.93,12.33,20.96,12.33z M21.09,11.2c0.02,0.2-0.05,0.29-0.2,0.27C20.81,11.28,20.88,11.19,21.09,11.2z M21.21,8.82
		c-0.15,0.02-0.22-0.07-0.2-0.27h0.27L21.21,8.82z M21.88,13.58c-0.1-0.04-0.19-0.04-0.27,0c-0.07,0.04-0.13,0.04-0.2,0
		c0.15-0.07,0.24-0.17,0.27-0.32C21.84,13.33,21.9,13.44,21.88,13.58z M22.73,13.97c-0.22-0.19-0.32-0.34-0.32-0.46
		c0.1-0.08,0.22-0.08,0.35,0c0.13,0.08,0.19,0.19,0.17,0.34c-0.01,0.01-0.05,0.03-0.11,0.06C22.77,13.92,22.74,13.95,22.73,13.97z
		 M23.13,10.21c-0.19,0.02-0.27-0.05-0.25-0.2c0.06-0.06,0.14-0.08,0.25-0.07V10.21z"/>
</g>
</svg>
