<?xml version="1.0" encoding="utf-8"?>
<!-- Generator: Adobe Illustrator 25.4.1, SVG Export Plug-In . SVG Version: 6.00 Build 0)  -->
<svg version="1.1" id="Layer_1" xmlns="http://www.w3.org/2000/svg" xmlns:xlink="http://www.w3.org/1999/xlink" x="0px" y="0px"
	 viewBox="0 0 32.19 39.81" style="enable-background:new 0 0 32.19 39.81;" xml:space="preserve">
<style type="text/css">
	.st0{fill:#FFFFFF;}
	.st1{fill:#ED1C24;}
</style>
<g>
	<rect x="-993.61" y="672.77" class="st0" width="448.86" height="102.86"/>
	<path class="st1" d="M-547.33,675.34v97.71h-443.71v-97.71H-547.33 M-542.18,670.2h-454v108h454V670.2L-542.18,670.2z"/>
</g>
<g>
	<text transform="matrix(1 0 0 1 -875.4598 714.3147)"><tspan x="0" y="0" style="fill:#010101; font-family:'Abys-Regular'; font-size:39.5088px;">ABYS FONT</tspan><tspan x="0" y="47.41" style="fill:#010101; font-family:'Abys-Regular'; font-size:39.5088px;">size: 40.3993</tspan></text>
</g>
<g>
	<path class="st0" d="M7.02,20.89c0.09-0.01,0.14,0.02,0.13,0.08c-0.03,0.03-0.06,0.03-0.1,0.01C7.01,20.98,7,20.95,7.02,20.89z
		 M7.03,26.37c0.03-0.01,0.05,0.02,0.06,0.1H7.02C7.02,26.48,7.02,26.45,7.03,26.37z M7.03,25.88c0.05-0.01,0.07,0.01,0.07,0.06
		C7.09,25.97,7.08,26,7.06,26.02C7.03,26.01,7.02,25.96,7.03,25.88z M7.41,24.31c0.03,0,0.05,0.01,0.07,0.03
		c0.01,0.02,0.02,0.03,0.04,0.03c-0.02,0.17-0.07,0.29-0.14,0.35c-0.02,0-0.04,0-0.06-0.01c-0.02-0.02-0.04-0.02-0.07-0.01
		C7.23,24.63,7.28,24.5,7.41,24.31z M7.44,22.45c0.02,0.1-0.02,0.15-0.11,0.14c-0.03-0.04-0.03-0.07,0-0.1
		C7.34,22.46,7.38,22.44,7.44,22.45z M7.76,23.34c-0.01-0.01-0.07-0.02-0.18-0.04c-0.08-0.01-0.1-0.07-0.08-0.17
		c0.1-0.04,0.16-0.06,0.18-0.06C7.7,23.08,7.72,23.17,7.76,23.34z M7.58,24.57c-0.05-0.05-0.05-0.09-0.01-0.14
		c0.05-0.05,0.09-0.05,0.14,0C7.71,24.52,7.67,24.57,7.58,24.57z M7.58,25.34c0.02-0.01,0.04,0.03,0.06,0.11H7.55L7.58,25.34z
		 M7.73,22.81c0.01,0.09-0.03,0.14-0.13,0.14c-0.03-0.03-0.04-0.08-0.03-0.17C7.66,22.78,7.71,22.79,7.73,22.81z M7.76,21.45
		c-0.02,0.03-0.05,0.04-0.08,0.03c-0.04-0.01-0.05-0.04-0.04-0.08c0.02-0.02,0.05-0.02,0.08-0.01C7.76,21.39,7.77,21.42,7.76,21.45z
		 M7.71,25.2c0.02,0,0.03,0,0.04,0.01c0.02,0.01,0.03,0.01,0.04,0.01c0.01,0.03,0,0.05-0.01,0.07c-0.03,0.01-0.04,0.02-0.04,0.04
		C7.71,25.33,7.7,25.29,7.71,25.2z M25.26,16.44c0.01,0.02,0.03,0.53,0.07,1.52c0,0.04,0,0.09,0.01,0.16
		c0.01,0.07,0.01,0.11,0.01,0.14c0,0.1-0.04,0.17-0.13,0.21c-0.16-0.17-0.23-0.5-0.2-1c0.04-0.52,0.01-0.85-0.08-1
		c-0.17,0-0.31,0.1-0.42,0.31c-0.12,0.21-0.26,0.31-0.41,0.32c0.01,0.17,0,0.45-0.01,0.85c-0.02,0.44-0.02,0.75-0.01,0.93
		c0,0.03,0,0.08,0.01,0.14c0.02,0.06,0.03,0.1,0.03,0.14c0,0.1-0.05,0.17-0.14,0.2c-0.04-0.01-0.07-0.03-0.1-0.06
		c-0.02,0.59-0.03,1-0.03,1.23c0,1.65-0.2,2.72-0.59,3.2c0.18-0.05,0.33-0.09,0.45-0.13c0.05,0.08,0.03,0.16-0.06,0.21
		c-0.02,0.02-0.06,0.04-0.11,0.07c-0.05,0.03-0.08,0.05-0.1,0.07l-0.03,0.3c-0.2,0.02-0.3,0.05-0.3,0.08
		c-0.04-0.03,0.14-0.04,0.52-0.03c-0.03,0.08-0.09,0.1-0.2,0.06c0.03-0.01,0,0.03-0.1,0.13c0.04,0.08,0.11,0.12,0.21,0.11
		c-0.05,0.03-0.08,0.07-0.11,0.11c-0.04,0.06-0.07,0.1-0.1,0.13c0.05,0.03,0.25,0.1,0.62,0.21c-0.05,0.04-0.15,0.04-0.31,0.01
		c-0.17-0.04-0.28-0.05-0.34-0.04c-0.03,0.05,0.1,0.08,0.39,0.08c-0.04,0.05-0.11,0.07-0.21,0.06c-0.13-0.01-0.22-0.01-0.27,0
		c-0.03,0.02-0.05,0.06-0.06,0.11c0.03,0.04,0.09,0.05,0.2,0.03c0.09-0.01,0.15,0.01,0.16,0.07c-0.06,0.02-0.16,0.03-0.31,0.03
		c-0.11-0.01-0.2,0.01-0.25,0.06c-0.01,0.11,0,0.16,0.03,0.14c0.01,0,0.03,0,0.06-0.01c0.02-0.02,0.03-0.02,0.04-0.01
		c0,0.05-0.06,0.08-0.17,0.11c-0.09,0.02-0.13,0.08-0.1,0.18c-0.12,0.02-0.16,0.01-0.13-0.03c-0.01,0.04,0,0.06,0.03,0.07
		c0.04,0.01,0.05,0.03,0.04,0.06c0.01,0-0.12-0.04-0.39-0.13c-0.07,0.01-0.08,0.06-0.06,0.14c0.03,0.09,0.03,0.16,0,0.18
		c-0.06-0.12-0.17-0.24-0.35-0.35c-0.03-0.01-0.04,0.01-0.03,0.06c0.01,0.04,0,0.06-0.03,0.06c-0.12-0.06-0.21-0.12-0.27-0.2
		c-0.09,0.04-0.18,0.03-0.27-0.01c-0.06,0.06-0.1,0.1-0.13,0.14v0.54c0,0.08-0.03,0.15-0.1,0.23c-0.08,0.08-0.12,0.15-0.14,0.21
		c0.02,0.3,0.05,1.19,0.1,2.66c0.04,1.09,0.1,1.98,0.2,2.66c-0.23,0.26-0.42,0.92-0.58,1.97c-0.14-0.09-0.2-0.25-0.18-0.48
		c-0.01,0.09,0.03-0.1,0.13-0.58c0.22-1.06,0.31-1.85,0.3-2.35c-0.09-2.05-0.22-3.33-0.38-3.85c-0.13,0.24-0.21,0.45-0.24,0.62
		c-0.22-0.06-0.33-0.16-0.34-0.32c-0.08,0.05-0.16,0.06-0.24,0.04c-0.1-0.03-0.2-0.03-0.3,0c-0.01-0.07-0.05-0.16-0.11-0.28
		c-0.06-0.1-0.08-0.2-0.08-0.3h-0.32c-0.09,0.28-0.08,0.85,0.03,1.69c0.11,0.78,0.1,1.29-0.03,1.54c-0.1-0.01-0.15-0.06-0.14-0.16
		c0.02-0.22,0.03-0.3,0.04-0.24c-0.01-0.09-0.04-0.56-0.08-1.4c-0.04-0.64-0.08-1.12-0.11-1.44c-0.85,0.35-1.79,0.36-2.83,0.04
		c0.09,2.87,0.13,4.62,0.1,5.24c-0.16-0.03-0.23-0.11-0.23-0.24c0-0.03,0.01-0.09,0.04-0.18c0.02-0.08,0.03-0.15,0.03-0.2
		c0.01-2.26-0.1-3.83-0.34-4.71c-0.18,0.03-0.45,0.02-0.8-0.03c-0.29-0.03-0.52,0-0.68,0.07c0.21,1.82,0.17,3.68-0.1,5.58
		c-0.14-0.04-0.2-0.16-0.18-0.37c0.01-0.06,0.02-0.15,0.04-0.27c0.03-0.11,0.04-0.19,0.04-0.24c0-0.01,0.01-1.55,0.04-4.61
		c-0.15-0.04-0.36-0.04-0.63,0c-0.32,0.06-0.57,0.07-0.76,0.04c-0.12-0.02-0.28-0.08-0.47-0.2c-0.19-0.11-0.33-0.17-0.44-0.18
		c-0.11-0.01-0.26,0.02-0.45,0.1c-0.2,0.08-0.35,0.11-0.47,0.1c-0.32,0.43-0.51,1.02-0.58,1.78C10.01,28.47,10,28.63,10,28.84
		c0,0.24,0,0.41,0,0.49c-0.02,0.38-0.11,0.64-0.28,0.8c-0.08-0.44-0.04-1.03,0.11-1.76c0.2-0.99,0.31-1.58,0.32-1.79
		c-0.01-0.08-0.07-0.12-0.17-0.14c-0.13-0.04-0.22-0.08-0.27-0.11C9.7,26.32,9.58,26,9.34,25.37c-0.03-0.07-0.07-0.15-0.13-0.24
		c-0.07-0.11-0.1-0.18-0.11-0.21l-0.01-0.01v-0.01c-0.03-0.07-0.04-0.13-0.03-0.2c-0.01-0.01-0.02-0.02-0.03-0.03
		c-0.02,0-0.04,0-0.06,0.01C8.95,24.7,8.92,24.7,8.9,24.69c0.21-0.27,0.25-0.4,0.13-0.38c-0.09-0.02-0.16-0.05-0.21-0.1
		c0.01,0.08-0.02,0.19-0.08,0.32c-0.08,0.15-0.11,0.28-0.11,0.39c0.06-0.02,0.12-0.01,0.2,0.03c0,0.08-0.01,0.14-0.03,0.17
		c-0.14-0.04-0.21-0.15-0.2-0.34c0-0.21-0.02-0.33-0.07-0.37c-0.03,0-0.06,0.01-0.08,0.03c-0.02,0.03-0.05,0.04-0.08,0.03
		c-0.01-0.11-0.03-0.19-0.06-0.24c0.04-0.03,0.04,0.03,0,0.18c-0.1,0.08-0.18,0.08-0.24,0c-0.03,0.01-0.03,0.03-0.01,0.06
		c0.02,0.02,0.01,0.04-0.01,0.06c-0.03,0-0.05-0.02-0.06-0.07c0-0.06,0-0.09-0.01-0.1c-0.03,0-0.05,0.02-0.07,0.07
		c-0.02,0.04-0.05,0.05-0.1,0.04c-0.06-0.36-0.08-0.53-0.08-0.52c0.02-0.03,0.05-0.04,0.1-0.03c0.04,0.02,0.06,0.04,0.07,0.06
		c0.07-0.15,0.06-0.28-0.03-0.39c-0.03,0.02-0.04,0.05-0.03,0.08c0.03,0.06,0.04,0.1,0.03,0.13c-0.05,0-0.07-0.02-0.07-0.06
		c0.01-0.05,0-0.08-0.04-0.08c0.19-0.22,0.29-0.32,0.3-0.32c0.02-0.04,0-0.05-0.04-0.04c-0.05,0-0.07-0.01-0.06-0.03
		c0.01-0.08,0.06-0.09,0.15-0.03c0.02,0,0.02-0.02,0-0.07c-0.01-0.05,0-0.08,0.03-0.1c0.23,0.16,0.33,0.22,0.32,0.17
		c0.08,0,0.18-0.08,0.3-0.23c-0.11,0.01-0.17,0.06-0.18,0.14c-0.04,0.01-0.07,0-0.1-0.03c-0.03-0.03-0.06-0.04-0.1-0.03
		c0-0.03,0.02-0.05,0.07-0.06c0.06,0,0.09-0.01,0.1-0.03c-0.01-0.01-0.04-0.01-0.08,0c-0.05,0.01-0.08,0-0.11-0.03
		c0.03-0.02,0.03-0.04,0.01-0.07c-0.01-0.04,0-0.07,0.01-0.08c0.04,0,0.12,0.03,0.24,0.08c0.04-0.01,0.07-0.04,0.1-0.08
		c0.03-0.05,0.07-0.07,0.13-0.06c-0.05,0.22-0.06,0.31-0.03,0.3c-0.01-0.04,0.03-0.04,0.11,0v0.11c-0.08-0.04-0.15-0.02-0.21,0.06
		c-0.07,0.08-0.11,0.11-0.14,0.1c-0.03,0.08-0.01,0.13,0.04,0.14c0.07,0.01,0.09,0.04,0.08,0.08c0.1-0.03,0.14-0.05,0.11-0.06v0.1
		c-0.1-0.01-0.17,0.01-0.2,0.06l0.11-0.01c0.08-0.01,0.1,0.02,0.08,0.1c0.01,0,0.05-0.04,0.13-0.11c-0.06-0.04-0.09-0.1-0.1-0.18
		c0.01,0,0.03,0,0.06,0.01c0.02,0.01,0.03,0.01,0.04,0.01c0.02-0.05,0.01-0.08-0.03-0.08c-0.02,0-0.04,0-0.07,0H8.76
		c0.02-0.12,0.01-0.16-0.03-0.13c0.34-0.02,0.5,0.06,0.49,0.24c0-0.05,0.02-0.09,0.06-0.13c-0.04-0.08-0.08-0.17-0.11-0.3
		c-0.05,0.07-0.06,0.08-0.03,0.04c-0.06,0.01-0.1-0.02-0.13-0.08c-0.03-0.07-0.08-0.09-0.14-0.07c0.02-0.08,0.09-0.15,0.23-0.2
		c-0.08-0.35-0.14-0.79-0.18-1.34c-0.03,0.02-0.06,0.02-0.1,0c-0.04-0.02-0.06-0.05-0.06-0.08c0.06-0.06,0.11-0.06,0.15,0
		c-0.21-2.59-0.15-4.36,0.18-5.31c0.24-0.69,0.84-1.14,1.78-1.35c0.3-0.07,2.31-0.1,6.03-0.1c0.34,0,0.79-0.01,1.35-0.03
		c-0.08-0.02-0.13-0.03-0.16-0.04c0.01-0.07,0.06-0.09,0.14-0.07c0.08,0.01,0.11-0.02,0.1-0.08c0.08,0.02,0.1,0.08,0.06,0.2
		c1.41-0.04,2.4-0.02,2.97,0.04v-0.08c0.04,0,0.06,0.01,0.07,0.03c0.01,0.03,0.01,0.05,0,0.07c0.42,0.05,0.78,0.13,1.09,0.24
		c0.24-0.01,0.44-0.05,0.58-0.11c-0.02,0.03-0.05,0.05-0.1,0.07c0.63,0.08,1.08-0.01,1.34-0.25c0.02,0,0.02,0,0.01,0.01
		c0,0.01,0,0.01-0.01,0.01c0.7,0.38,1.01,0.51,0.96,0.41C25.45,15.26,25.43,15.74,25.26,16.44z M7.87,22.83
		c-0.07,0.02-0.09-0.02-0.08-0.11h0.08V22.83z M7.82,22.98c0.08-0.01,0.11,0.01,0.11,0.07c-0.03,0.03-0.06,0.03-0.08,0.01
		C7.82,23.04,7.81,23.01,7.82,22.98z M7.97,22.24c0.01-0.09-0.03-0.17-0.13-0.24c0.02-0.03,0.04-0.07,0.07-0.13
		c0.04-0.05,0.07-0.08,0.08-0.11c0.08-0.08,0.17-0.11,0.3-0.08c0.1,0.08,0.18,0.17,0.23,0.27c-0.04,0.04-0.05,0.09-0.04,0.16
		c0,0.09,0,0.16-0.01,0.2c-0.03-0.06-0.07-0.08-0.13-0.08c-0.07,0.01-0.11,0.04-0.14,0.08C8.02,22.28,7.95,22.26,7.97,22.24z
		 M8.03,21.38c-0.08,0-0.11-0.03-0.1-0.08c0.02-0.02,0.05-0.03,0.1-0.03V21.38z M8.06,21.19c-0.05,0.02-0.08,0.01-0.1-0.03
		c-0.02-0.04-0.01-0.07,0.01-0.1c0.03-0.01,0.05,0,0.07,0.01c0.01,0.02,0.02,0.03,0.04,0.03C8.07,21.13,8.06,21.16,8.06,21.19z
		 M8,25.2c0.11-0.01,0.15,0.03,0.11,0.11c-0.04,0.08-0.08,0.08-0.14,0c0-0.02,0-0.04,0.01-0.06C8.01,25.24,8.01,25.22,8,25.2z
		 M8.38,21.16c-0.12,0.04-0.17,0.06-0.16,0.06c-0.05-0.06-0.07-0.12-0.06-0.18C8.33,20.93,8.4,20.97,8.38,21.16z M8.35,24.93
		c0.01,0.05,0,0.09-0.01,0.13c-0.03,0.05-0.04,0.09-0.04,0.13c-0.11-0.12-0.12-0.22-0.01-0.28c0.01,0,0.02,0,0.04,0.01
		C8.33,24.93,8.34,24.93,8.35,24.93z M8.41,24.61c0.04,0,0.06,0.03,0.06,0.08c0,0.06-0.03,0.08-0.08,0.06
		c-0.01-0.03,0-0.05,0.01-0.07C8.41,24.65,8.41,24.63,8.41,24.61z M8.49,20.86c0.01,0.06-0.01,0.08-0.06,0.08
		c-0.05,0-0.07-0.03-0.06-0.08H8.49z M8.38,21.68c0.01-0.05,0.05-0.07,0.11-0.06v0.08C8.49,21.7,8.46,21.69,8.38,21.68z M8.73,22.34
		c0.01,0.09-0.01,0.14-0.06,0.14c0.01,0.03,0.04,0.05,0.08,0.06c0.05,0.02,0.08,0.04,0.08,0.06c-0.01,0.07-0.07,0.11-0.17,0.13
		c-0.02-0.04-0.04-0.09-0.07-0.17c-0.03-0.09-0.05-0.16-0.06-0.18C8.6,22.32,8.66,22.31,8.73,22.34z M8.58,21.95
		c0.08-0.04,0.08-0.08,0-0.11c0.02,0,0.04,0.02,0.06,0.06c0.02,0.04,0.05,0.05,0.1,0.03c-0.01,0.08-0.03,0.09-0.07,0.06
		C8.62,21.94,8.59,21.93,8.58,21.95z M9,24.88c-0.02,0-0.03,0-0.04,0.01c-0.02,0.01-0.03,0.01-0.04,0.01c-0.08,0-0.11-0.04-0.1-0.13
		c0.07-0.07,0.13-0.07,0.18,0V24.88z M9.03,25.1c0.03-0.01,0.05,0.02,0.06,0.1H9C9,25.21,9.01,25.18,9.03,25.1z M9.14,23.02h0.01
		c-0.02-0.08-0.04-0.15-0.06-0.23c-0.01,0.03-0.01,0.08-0.01,0.15C9.12,23,9.14,23.03,9.14,23.02z M9.09,24.55
		c0.03-0.08,0.08-0.15,0.14-0.21C9.15,24.38,9.11,24.45,9.09,24.55z M9.28,24.29c0.01-0.01,0.02-0.02,0.04-0.04
		c-0.03-0.04-0.03-0.08,0-0.14c-0.06,0-0.08,0.02-0.07,0.06C9.26,24.26,9.27,24.3,9.28,24.29z M9.47,24.13c0.01,0,0.02,0,0.03-0.01
		c-0.03-0.01-0.04-0.01-0.03-0.01C9.47,24.11,9.47,24.12,9.47,24.13z M12.23,17.3c0.56,0.01,0.94-0.03,1.14-0.11v-0.93
		c-2.17,0.01-3.35,0.04-3.54,0.1v0.73c0.08,0.15,0.27,0.21,0.55,0.18c0.27-0.03,0.44,0.01,0.49,0.13c0.01,0.32,0,1.24-0.01,2.78
		c-0.02,1.14,0.02,2.02,0.11,2.64c0.07,0.05,0.15,0.08,0.25,0.1c-0.05-0.05-0.04-0.09,0.01-0.13c0.1,0.02,0.15,0.07,0.14,0.14
		c0-0.01,0-0.01-0.01,0c0.26,0.01,0.51-0.03,0.75-0.11c0.02-0.32,0.01-1.26-0.01-2.82C12.09,18.82,12.14,17.93,12.23,17.3z
		 M12.64,13.34c0.23-2.37-0.18-4.62-1.24-6.75c0.04-0.05,0.31-0.08,0.83-0.11c0.11,0.2,0.24,0.59,0.38,1.17
		c0.13,0.54,0.28,0.92,0.45,1.13c0.17-0.2,0.31-0.57,0.44-1.11c0.14-0.59,0.27-0.99,0.39-1.18h0.83c-0.99,2.46-1.37,4.75-1.14,6.86
		C13.26,13.48,12.95,13.48,12.64,13.34z M15.86,22.81c0.03-2.84,0.03-4.47,0-4.89c-0.56-0.11-0.98-0.08-1.25,0.11
		c-0.05,0.26-0.03,1,0.06,2.21c0.07,0.9-0.06,1.45-0.37,1.63c-0.08-0.44-0.12-1.08-0.11-1.92c0.02-1.16,0.02-1.85,0.01-2.04h-1.14
		c0.5,3.54,0.63,5.2,0.41,4.99c0.44-0.12,0.85-0.16,1.24-0.13C15.25,22.82,15.64,22.83,15.86,22.81z M17.01,13.24
		c-0.24,0.08-0.54,0.12-0.87,0.11c-0.39-0.01-0.65-0.08-0.79-0.21c-0.29-0.78-0.42-1.71-0.39-2.79c0.04-1.3,0.38-2,1.01-2.1
		c0.95-0.15,1.49,0.46,1.62,1.85C17.7,11.35,17.5,12.4,17.01,13.24z M16.6,8.97c-0.32-0.14-0.58-0.02-0.78,0.35
		c-0.18,0.34-0.28,0.79-0.3,1.35c-0.02,0.57,0.05,1.06,0.21,1.45c0.18,0.43,0.43,0.63,0.75,0.59c0.25-0.3,0.38-0.9,0.37-1.8
		C16.84,10.11,16.76,9.46,16.6,8.97z M16.06,13.63c-0.01,0,0.02,0.01,0.1,0.03c0,0.05-0.03,0.07-0.1,0.06V13.63z M16.19,13.48h0.11
		c-0.01,0.08-0.05,0.12-0.11,0.1V13.48z M18.57,22.9c0.49-0.31,0.75-1.07,0.78-2.28c0.02-1.03-0.1-1.94-0.37-2.71
		c-0.15-0.12-0.39-0.17-0.72-0.15c-0.37,0.02-0.61,0-0.73-0.06v-1.45c-0.08-0.04-0.16-0.07-0.24-0.08
		c-0.01,0.21-0.05,0.34-0.11,0.39c-0.01-0.01-0.02-0.02-0.03-0.03c-0.02,0.01-0.03,0.02-0.04,0.04c-0.03-0.01-0.03-0.04,0-0.08
		c-0.06-0.06-0.08-0.17-0.08-0.34c-0.1,0.01-0.31,0.04-0.63,0.1c-0.2,2.19-0.2,4.37,0,6.55C17.28,22.74,18.01,22.77,18.57,22.9z
		 M16.44,17.55c-0.15,0.03-0.16,0.07-0.03,0.13C16.4,17.63,16.41,17.59,16.44,17.55z M16.41,14.31c-0.05-0.01-0.07-0.05-0.06-0.11
		c-0.01,0,0.02,0.01,0.1,0.03c0,0.01-0.01,0.02-0.03,0.04C16.42,14.29,16.41,14.3,16.41,14.31z M16.6,17.23
		c-0.07,0.02-0.09-0.02-0.08-0.11h0.08V17.23z M16.71,16.49c0.06-0.01,0.08,0.02,0.07,0.08c-0.01,0.06-0.04,0.08-0.1,0.06
		C16.67,16.58,16.68,16.53,16.71,16.49z M16.74,14.17c-0.05-0.04-0.05-0.08,0-0.13c0.05-0.05,0.09-0.05,0.13,0
		C16.87,14.14,16.83,14.18,16.74,14.17z M16.92,13.6c0-0.02-0.01-0.03-0.03-0.03v-0.06c0.02,0.01,0.03,0,0.03-0.01h0.06
		c-0.01,0.01,0,0.01,0.03,0.01v0.06c-0.02,0-0.03,0.01-0.03,0.03H16.92z M17.03,14.49c-0.06,0.02-0.08,0-0.08-0.04
		c0-0.05,0.03-0.07,0.08-0.06V14.49z M17.25,14.07c0.04,0.01,0.07,0,0.08-0.03c0.03-0.03,0.05-0.04,0.07-0.03
		c0.05,0.04,0.05,0.09,0,0.15C17.3,14.17,17.25,14.14,17.25,14.07z M17.27,13.75c0.01-0.06,0.04-0.09,0.08-0.11
		c0.06-0.03,0.1-0.02,0.13,0.03c-0.02,0.1-0.07,0.16-0.15,0.16c-0.01-0.01-0.02-0.02-0.03-0.03C17.28,13.77,17.27,13.75,17.27,13.75
		z M17.95,21.88c-0.35-0.17-0.52-0.77-0.52-1.79c0-1.04,0.24-1.56,0.72-1.55c0.1,1.06,0.16,1.66,0.16,1.79
		C18.31,21.13,18.19,21.65,17.95,21.88z M18.01,12.58c-0.05,0.07-0.11,0.11-0.2,0.14c-0.08-0.08-0.08-0.15,0-0.18
		C17.87,12.49,17.94,12.5,18.01,12.58z M17.81,13.31c0.04,0,0.09,0.04,0.17,0.11c-0.01,0.04-0.04,0.06-0.08,0.07
		c-0.05,0.02-0.08,0.01-0.11-0.01c0-0.02,0.01-0.05,0.03-0.08C17.82,13.36,17.82,13.34,17.81,13.31z M17.87,13.66
		c0.06-0.01,0.08,0.04,0.08,0.16c-0.07,0.03-0.1,0.01-0.11-0.04C17.83,13.73,17.84,13.69,17.87,13.66z M17.92,13.18
		c0.04-0.01,0.06,0,0.07,0.04c0.01,0.04,0,0.07-0.01,0.08c-0.05,0.01-0.08,0-0.08-0.04C17.88,13.23,17.89,13.2,17.92,13.18z
		 M18.03,13.07c-0.04-0.01-0.06,0-0.06,0.03c-0.04-0.1-0.06-0.15-0.06-0.14c0.02-0.02,0.06-0.03,0.11-0.03V13.07z M18.22,12.77
		c-0.04,0.02-0.07,0.02-0.08,0c-0.04-0.02-0.07-0.03-0.1-0.03c0.06-0.08,0.08-0.12,0.07-0.14C18.18,12.62,18.22,12.68,18.22,12.77z
		 M18.27,13.55c-0.08,0.01-0.12-0.01-0.11-0.07C18.26,13.47,18.29,13.49,18.27,13.55z M18.49,14.28c-0.07-0.01-0.12-0.05-0.17-0.13
		c-0.05-0.09-0.09-0.15-0.13-0.17c-0.01-0.06,0.01-0.09,0.07-0.11c0.06-0.01,0.1,0,0.14,0.03c-0.11,0.06-0.08,0.09,0.08,0.11
		c-0.02,0.05-0.02,0.09,0,0.14C18.5,14.21,18.5,14.25,18.49,14.28z M18.34,13.31c0.01,0.07-0.02,0.09-0.1,0.08l0.03-0.11
		c0.01,0,0.02,0,0.04,0.01C18.33,13.3,18.34,13.31,18.34,13.31z M18.4,12.77c0.04-0.01,0.08-0.01,0.11,0
		c-0.03-0.07-0.05-0.14-0.07-0.21c-0.04,0-0.06-0.02-0.06-0.06c-0.01-0.04,0-0.07,0.01-0.08h0.01c-0.05-0.23-0.03-1.55,0.04-3.96
		h0.63c0.12,0.31,0.16,0.84,0.11,1.59c-0.05,0.93-0.06,1.52-0.04,1.76c0.06-0.02,0.11,0,0.16,0.04c-0.01,0.08,0.02,0.13,0.08,0.16
		l0.08-0.06c-0.02,0.05-0.01,0.09,0.03,0.14c0.08-0.07,0.18-0.06,0.3,0.03c-0.01,0.02-0.02,0.05-0.04,0.08
		c-0.02,0.03-0.03,0.05-0.04,0.07c-0.2-0.04-0.34,0-0.42,0.11c0.09,0.2,0.23,0.34,0.41,0.42c0,0.01,0.01,0,0.04-0.03v-0.01
		c0.01,0,0.02,0,0.03,0l0.03-0.03c0-0.01,0-0.01,0,0c0.28-0.26,0.39-0.98,0.31-2.16c-0.08-1.16,0.03-1.87,0.32-2.13
		c0.3,0.08,0.46,0.36,0.48,0.86c0,0.16-0.01,0.39-0.03,0.68c-0.03,0.32-0.04,0.54-0.04,0.65v1.8h0.01c0.04-0.01,0.06,0,0.06,0.04
		c0,0.08,0,0.1-0.01,0.08h-0.06v0.56c-0.08,0.01-0.17,0.02-0.27,0.03c0,0.04,0,0.07-0.01,0.08c-0.08,0.01-0.12-0.02-0.14-0.08
		c-0.13,0-0.29-0.01-0.48-0.04h-0.03c-0.01,0.01-0.01,0,0-0.01c-0.13-0.02-0.24-0.03-0.32-0.03c0.01,0.02,0.01,0.05,0.01,0.1
		l-0.1-0.08c-0.19,0.02-0.4,0.1-0.63,0.24c-0.05-0.04-0.09-0.08-0.13-0.14H18.7c0.02,0.03,0-0.02-0.06-0.14
		c-0.02-0.04-0.03-0.07-0.04-0.1c-0.02,0.02-0.03,0.06-0.04,0.11c0,0.06,0,0.09-0.01,0.11c-0.05-0.01-0.09-0.04-0.13-0.1
		c-0.05-0.06-0.08-0.09-0.11-0.1c0-0.03,0.01-0.07,0.04-0.11C18.38,12.83,18.4,12.8,18.4,12.77z M18.43,13.52
		c-0.08-0.01-0.11-0.02-0.1-0.04c0.02-0.03,0.05-0.04,0.1-0.03V13.52z M18.46,13.2c0.01,0.08-0.02,0.12-0.08,0.11
		c-0.02-0.03-0.03-0.06-0.03-0.08C18.37,13.21,18.41,13.2,18.46,13.2z M19.11,13.93c-0.03,0.1-0.08,0.13-0.15,0.08
		c-0.11-0.06-0.18-0.08-0.2-0.08c0-0.05-0.06-0.11-0.17-0.2c-0.08-0.07-0.1-0.14-0.04-0.21c0.09,0.08,0.15,0.15,0.16,0.23
		c0.08-0.01,0.11-0.02,0.11-0.03c0,0.01,0,0.02,0.01,0.04c0,0.03,0,0.05,0,0.06c0.02,0.04,0.06,0.04,0.13,0
		c0.05-0.08,0.08-0.13,0.1-0.16c0.04,0.03,0.05,0.08,0.03,0.14c-0.01,0.08-0.04,0.11-0.08,0.1C19,13.91,19.04,13.92,19.11,13.93z
		 M18.63,13.2c0.05-0.01,0.07,0.01,0.06,0.07c-0.01,0.06-0.04,0.07-0.08,0.04c0-0.02,0-0.04,0.01-0.06
		C18.62,13.23,18.63,13.21,18.63,13.2z M18.6,14.1c0.03,0,0.06,0.02,0.1,0.07c0.04,0.04,0.08,0.06,0.11,0.06
		c0,0.04-0.02,0.09-0.06,0.17h-0.1C18.63,14.17,18.61,14.07,18.6,14.1z M18.89,13.6l0.1,0.03c0,0.05-0.04,0.07-0.13,0.06
		C18.88,13.66,18.89,13.63,18.89,13.6z M19.02,13.36c0.01,0.09-0.01,0.14-0.07,0.14v-0.14H19.02z M19.27,14.07
		c-0.03,0.06-0.09,0.08-0.2,0.07c0.02-0.03,0.03-0.05,0.03-0.07C19.24,14.09,19.29,14.09,19.27,14.07z M19.3,14.13
		c0.04-0.03,0.04-0.07,0.01-0.11c-0.03-0.06-0.03-0.1,0-0.14c0.04,0,0.07,0.01,0.08,0.04c0.02,0.03,0.04,0.04,0.06,0.04
		C19.41,14.07,19.36,14.13,19.3,14.13z M19.4,11.36c0.01,0.07-0.02,0.09-0.1,0.08l0.01-0.11c0.02,0,0.04,0,0.06,0.01
		C19.38,11.36,19.39,11.36,19.4,11.36z M19.35,13.25c0.01-0.08,0.03-0.11,0.07-0.11c0.08,0.01,0.12,0.01,0.13,0.01
		C19.52,13.28,19.46,13.31,19.35,13.25z M19.54,13.77c-0.01,0.04-0.05,0.05-0.11,0.04c0,0.01,0.01-0.02,0.03-0.1
		c0.01,0,0.02,0.01,0.04,0.03C19.51,13.75,19.52,13.76,19.54,13.77z M22.42,20.62c0.47-0.97,0.42-1.78-0.15-2.42
		c-0.54-0.59-1.13-0.75-1.78-0.48c0,0.01,0,0.04,0,0.1c-0.06,0.01-0.09-0.01-0.1-0.06c-0.33,0.17-0.55,0.46-0.68,0.89
		c-0.3,1.07-0.28,2.07,0.06,3c0.36,0.98,0.93,1.4,1.71,1.25c0.88-0.15,1.2-0.77,0.94-1.86h-0.83c-0.07,0.04-0.1,0.23-0.1,0.56
		c-0.01,0.28-0.12,0.4-0.32,0.37c-0.25,0.04-0.4-0.14-0.44-0.52c-0.03-0.35,0.01-0.62,0.13-0.83H22.42z M19.67,13.66
		c0.01,0.06-0.01,0.08-0.06,0.07c-0.06,0-0.08-0.02-0.07-0.07H19.67z M19.73,13.36c0,0.03,0,0.06,0.01,0.08
		c0.02,0.04,0.02,0.07,0.01,0.1c-0.12,0.04-0.19,0.01-0.21-0.07C19.55,13.41,19.61,13.37,19.73,13.36z M19.7,13.22
		c-0.02,0.03-0.03,0.06-0.03,0.08c0.01,0-0.02-0.01-0.1-0.03c0.02-0.03,0.03-0.06,0.03-0.08C19.59,13.21,19.62,13.21,19.7,13.22z
		 M19.7,14.14c-0.03,0-0.07-0.07-0.13-0.21c0.05,0,0.07,0.02,0.06,0.07c0,0.04,0.03,0.05,0.1,0.04L19.7,14.14z M19.81,11.72
		c0.03-0.01-0.02-0.03-0.14-0.06c0.01-0.08,0.06-0.11,0.14-0.1C19.87,11.61,19.87,11.66,19.81,11.72z M19.97,13.15
		c0.12,0.05,0.12,0.13,0,0.24c-0.04-0.01-0.06-0.05-0.06-0.11C19.92,13.21,19.94,13.17,19.97,13.15z M20.08,11.69
		c-0.05,0-0.08-0.02-0.1-0.07c-0.02-0.05-0.01-0.08,0.01-0.11C20.12,11.56,20.14,11.62,20.08,11.69z M20.25,13.9
		c0.01,0.17-0.02,0.28-0.08,0.32c-0.04,0-0.06-0.03-0.07-0.1c-0.02-0.07-0.05-0.09-0.1-0.08c0-0.08,0.03-0.13,0.08-0.17
		C20.13,13.84,20.19,13.85,20.25,13.9z M20.05,14.34l0.11,0.03c-0.01,0.04-0.05,0.06-0.11,0.06V14.34z M20.26,13.31
		c0.01-0.02,0-0.03-0.01-0.03v-0.06c0.01,0.01,0.01,0,0.01-0.03h0.06c0,0.02,0.01,0.03,0.03,0.03v0.06c-0.01,0-0.02,0.01-0.03,0.03
		H20.26z M20.54,14.13c0,0.03-0.03,0.05-0.08,0.06c-0.06,0-0.09-0.01-0.11-0.04C20.35,14.16,20.41,14.15,20.54,14.13z M20.59,14.28
		c0.01,0.08-0.01,0.12-0.06,0.11c-0.06-0.01-0.08,0.01-0.07,0.06c-0.04,0-0.07-0.04-0.08-0.11c0.06,0.01,0.1-0.02,0.14-0.08
		C20.54,14.27,20.57,14.28,20.59,14.28z M20.9,13.2c-0.02-0.07-0.01-0.11,0.01-0.13c0.07,0.01,0.09,0.04,0.07,0.08
		c-0.04,0.07-0.05,0.12-0.04,0.16c-0.11,0-0.16,0.03-0.16,0.08c0.14,0.07,0.2,0.14,0.18,0.21c-0.02,0.01-0.06,0.03-0.11,0.07
		c-0.05,0.03-0.1,0.04-0.16,0.04v0.08c0.05,0.02,0.09,0.03,0.14,0.03c0.08,0,0.13,0,0.16,0.01c0.01-0.03,0-0.05-0.03-0.06
		c-0.02-0.02-0.03-0.04-0.03-0.07c0.02,0,0.04-0.02,0.07-0.06c0.02-0.02,0.04-0.03,0.07-0.03c0.03,0.12,0.09,0.18,0.18,0.17v0.1
		c0.04-0.01,0-0.03-0.13-0.06c-0.02,0.01-0.01,0.03,0.01,0.07c0.03,0.04,0.04,0.07,0.04,0.1c-0.02,0-0.06,0.05-0.11,0.15
		c-0.07,0.02-0.11,0-0.13-0.07c-0.03-0.08-0.05-0.13-0.06-0.14c-0.02,0-0.03,0.02-0.04,0.06c0,0.03,0,0.05-0.01,0.06
		c-0.04,0-0.07-0.01-0.1-0.03c-0.04-0.02-0.07-0.03-0.1-0.03c-0.01,0.04-0.04-0.03-0.1-0.21c0-0.05,0.03-0.1,0.1-0.17
		c0.07-0.06,0.08-0.11,0.06-0.16c-0.13,0.08-0.18,0.13-0.16,0.13c-0.08-0.09-0.11-0.15-0.11-0.15c0.01-0.02,0.04-0.04,0.08-0.06
		c0.04-0.02,0.06-0.04,0.07-0.06c0.02,0,0.03,0.03,0.03,0.08c0.06-0.01,0.08-0.03,0.08-0.07c-0.01-0.05,0-0.08,0.03-0.1
		c0.01,0.01,0.02,0.02,0.04,0.03c0.01,0.02,0.02,0.03,0.04,0.03C20.8,13.21,20.83,13.18,20.9,13.2z M20.7,17.76l-0.03,0.11
		c-0.05-0.01-0.07-0.05-0.06-0.11H20.7z M20.84,14.22c-0.02,0-0.04,0.01-0.06,0.04c-0.01,0.02-0.03,0.02-0.06,0.01
		c0.01-0.03,0-0.05-0.03-0.07c-0.03-0.02-0.04-0.04-0.03-0.07c0.03-0.03,0.07-0.03,0.11-0.01C20.82,14.14,20.84,14.18,20.84,14.22z
		 M20.85,19.58c-0.14-0.2-0.16-0.4-0.06-0.61c0.11-0.23,0.31-0.3,0.58-0.23c0.12,0.28,0.19,0.49,0.21,0.62
		C21.35,19.56,21.11,19.63,20.85,19.58z M20.94,13.39c0-0.02,0.03-0.07,0.08-0.14c0.04,0.01,0.06,0.06,0.06,0.14H20.94z
		 M21.11,11.93c-0.09,0.03-0.13,0-0.11-0.1h0.11V11.93z M20.99,13.04c-0.01-0.06,0-0.1,0.03-0.14h0.11
		c0.03,0.08,0.04,0.13,0.03,0.17C21.08,13.07,21.02,13.06,20.99,13.04z M21.13,13.25c-0.07-0.03-0.09-0.07-0.08-0.13
		c0.02,0,0.04,0,0.06,0.01c0.02,0.01,0.04,0.01,0.06,0.01c0,0.01,0,0.02-0.01,0.04C21.14,13.21,21.13,13.23,21.13,13.25z
		 M21.23,13.66c0.06-0.04,0-0.1-0.18-0.18C21.13,13.49,21.19,13.55,21.23,13.66z M21.23,12.18c0.01,0-0.02-0.01-0.1-0.03
		c0-0.01,0.01-0.02,0.03-0.04c0.01-0.02,0.02-0.03,0.03-0.04C21.23,12.08,21.24,12.12,21.23,12.18z M21.29,13.22
		c0.01,0.1-0.03,0.15-0.13,0.14c-0.01-0.01,0-0.07,0.04-0.17c0.02,0,0.04,0,0.06,0.01C21.27,13.22,21.28,13.22,21.29,13.22z
		 M21.19,26.61c0.02-0.07,0.06-0.1,0.11-0.11c0.07-0.01,0.11,0.02,0.14,0.08c0,0.06-0.03,0.09-0.08,0.11c-0.06,0.01-0.1,0-0.14-0.03
		C21.23,26.64,21.22,26.62,21.19,26.61z M21.35,12.77c0.01,0.08-0.02,0.11-0.08,0.1C21.23,12.8,21.26,12.76,21.35,12.77z M21.4,11.8
		c-0.07,0.01-0.09-0.03-0.08-0.11h0.11L21.4,11.8z M21.67,13.75c-0.04-0.02-0.08-0.02-0.11,0c-0.03,0.01-0.05,0.01-0.07,0
		c0.06-0.03,0.09-0.08,0.1-0.14C21.65,13.64,21.68,13.69,21.67,13.75z M21.57,26.43c0.08,0,0.14,0.01,0.17,0.03
		c0,0.08-0.01,0.14-0.03,0.16c-0.03,0.01-0.06,0.01-0.08,0c-0.04-0.02-0.07-0.03-0.08-0.03C21.54,26.5,21.55,26.45,21.57,26.43z
		 M22.02,13.9c-0.08-0.08-0.13-0.14-0.14-0.18c0.05-0.03,0.1-0.03,0.16,0c0.05,0.03,0.07,0.07,0.07,0.13
		C22.04,13.91,22.01,13.93,22.02,13.9z M21.9,26.75c-0.01-0.08,0.02-0.16,0.1-0.21c0.08-0.06,0.17-0.06,0.28,0
		c0.15,0.16,0.13,0.28-0.06,0.37C22.02,26.99,21.91,26.94,21.9,26.75z M22.18,12.36c-0.08,0.01-0.11-0.02-0.1-0.08
		c0.02-0.02,0.05-0.03,0.1-0.03V12.36z M23.49,26.37c0.04-0.03,0.08-0.04,0.13-0.03c0.06,0.02,0.09,0.05,0.1,0.08
		c0,0.03-0.01,0.05-0.04,0.06c-0.03,0.01-0.04,0.03-0.04,0.06C23.54,26.48,23.49,26.43,23.49,26.37z M23.52,25.84
		c0.02-0.02,0.06-0.01,0.11,0.01c0.05,0.03,0.08,0.06,0.08,0.1c-0.04-0.01-0.08-0.03-0.11-0.06C23.56,25.86,23.54,25.85,23.52,25.84
		z M24.43,24c-0.03,0.06-0.16,0.1-0.39,0.13C24.26,24.05,24.39,24,24.43,24z M24.46,24c0.04-0.05,0.09-0.08,0.17-0.08
		C24.64,23.98,24.58,24,24.46,24z"/>
</g>
</svg>
